<svg version="1.2" xmlns="http://www.w3.org/2000/svg" viewBox="0 0 3133 286" width="3133" height="286"><style></style><path fill-rule="evenodd" d="m141 1.1c4.1-0.1 12.4 0.6 18.5 1.4 6.1 0.9 13.9 2.3 17.5 3.1 3.6 0.9 10.6 3.2 15.5 5.2 4.9 1.9 11.7 4.8 15 6.5 3.3 1.6 9.8 5.6 14.5 8.8 4.7 3.1 12.5 9.5 17.4 14.1 4.9 4.6 12.3 12.8 16.4 18.3 4.2 5.7 9.9 15.1 13.3 22 3.2 6.6 6.7 14.9 7.9 18.5 1.2 3.6 3 10.5 4.1 15.5 1 5 2.2 14.6 2.5 21.5 0.4 7.4 0.2 16.5-0.5 22.5-0.6 5.5-2.1 13.8-3.2 18.5-1.1 4.7-3.8 13-5.9 18.5-2.2 5.5-6.1 13.6-8.6 18-2.6 4.4-7.1 11.2-9.9 15-2.9 3.8-9 10.8-13.6 15.3-4.6 4.6-12.2 11.2-16.9 14.5-4.7 3.4-12.6 8.3-17.5 10.9-4.9 2.6-13.7 6.3-19.5 8.2-5.8 1.9-13.9 4.2-18 5.1-4.1 0.9-14.3 1.9-22.5 2.2-9.4 0.4-18.1 0.1-23.5-0.7-4.7-0.6-12.1-2.1-16.5-3.2-4.4-1.1-11.8-3.4-16.5-5.2-4.7-1.8-12.1-5.3-16.5-7.7-4.4-2.4-12.3-7.6-17.5-11.5-5.2-3.9-13.1-10.9-17.5-15.5-4.4-4.7-10.9-12.7-14.4-17.9-3.5-5.2-7.6-12-9.1-15-1.5-3-4.2-8.9-5.8-13-1.7-4.1-3.9-11.1-5.1-15.5-1.1-4.4-2.7-12.6-3.6-18.3-0.8-5.6-1.5-13.9-1.5-18.5 0-4.5 0.9-13.8 2.1-20.7 1.1-6.9 3.6-17.2 5.5-23 1.9-5.8 5-13.7 6.9-17.5 1.8-3.8 5.7-10.6 8.5-15 2.9-4.4 8.3-11.6 12-16 3.7-4.4 9.2-10 12.1-12.5 2.9-2.5 8.5-6.9 12.3-9.8 3.9-2.9 11.8-7.7 17.6-10.6 5.8-2.9 13.7-6.5 17.5-7.9 3.8-1.4 9-3.1 11.5-3.8 2.5-0.6 9.7-2 16-2.9 6.3-1 14.9-1.9 19-1.9zm33 92.4c-3.6 3.5-6.3 6.6-6 6.9 0.3 0.2 9.9 10 21.4 21.8l20.8 21.3-43.2 43 13 13c35.3-35.1 47.9-47.4 50.8-50.1 2.9-2.7 5.3-5.3 5.2-5.9 0-0.6-12.5-13.5-27.8-28.8l-27.7-27.7zm-126.5 49.4l56.5 56.6 13-13-43.2-43 43.3-43c-9.8-9.7-12.9-12.5-13.4-12.5-0.4 0-13.2 12.4-28.5 27.5zm522-99.4l0.5 174.5 38.5 0.5 0.5 19.5h-99v-20h38v-155h-33l-4.5-9c-2.5-5-4.2-9.5-3.9-10 0.3-0.7 11.4-0.9 62.9-0.5zm154.8 0.6c0.4-0.1 0.7 12.5 0.7 55.9l45.5 0.5 0.5 19.5h-46l0.2 45.4c0.3 43.7 0.4 45.6 2.3 48.2 1.1 1.4 3.1 3.5 4.5 4.6 1.8 1.4 4.7 2.1 11 2.5 7.1 0.4 9.6 0.2 15-1.7 3.6-1.2 7.5-2.8 8.7-3.6 1.3-0.8 2.5-1.3 2.8-1.2 0.3 0.2-0.1 5-2 21.2l-6.5 2.2c-3.6 1.3-10.3 2.8-15 3.4-7.2 1-9.8 1-17-0.5-4.7-0.9-9.4-2.2-10.5-2.7-1.1-0.6-3.5-2.3-5.3-3.7-1.9-1.5-4.8-5.4-9.7-15.6l-0.5-98.5h-32l0.5-19.5 31.5-0.5-0.4-45.5 10.4-5.2c5.8-2.9 10.8-5.2 11.2-5.2zm803.3-0.1l0.3 32.3c0.1 17.7 0.4 32.8 0.7 33.5 0.3 0.8 1.5 0.3 3.8-1.6 1.7-1.5 5.9-4.1 9.2-5.6 3.3-1.6 9.4-3.5 13.5-4.4 6.2-1.2 9-1.3 16-0.4 4.7 0.7 10.5 1.9 13 2.9 2.5 0.9 7.4 3.6 11 5.9 3.6 2.3 8.1 6.1 10.1 8.5 2 2.4 5.1 6.9 6.9 9.9 1.8 3 4 7.8 5 10.5 1.1 2.8 2.3 6.8 2.9 9 0.6 2.2 1.5 8.7 2 14.5 0.7 6.6 0.7 14.4 0.1 21-0.4 5.8-1.6 13.4-2.5 17-0.9 3.6-3.3 9.9-5.2 14-2.6 5.5-5.5 9.4-10.7 14.6-4.9 4.8-9.2 8.1-13.6 10.1-3.6 1.7-10.1 3.8-14.5 4.7-4.4 0.9-9.5 1.6-11.2 1.6-1.8 0-6.6-0.7-10.5-1.5-4-0.9-9.1-2.4-11.3-3.5-2.2-1-6.1-3.5-8.7-5.4-2.7-2-5-3.6-5.3-3.6-0.3 0-0.5 2.3-0.5 10h-28l0.5-181.3zm7.6 88.2c-2.9 2.3-5.7 5-6.2 6-0.5 0.9-0.9 15.2-0.9 31.7v30c9 8 13.9 11.1 17 12.2 3.7 1.4 8.1 2.1 13.5 2.2 4.4 0.1 10.3-0.5 13-1.3 3.7-1.1 6.4-2.9 10.6-7 4-4 6.2-7.3 7.8-11.6 1.2-3.3 2.7-8.5 3.3-11.5 0.6-3 0.8-11.1 0.5-18-0.3-8.7-1.1-14.1-2.4-18-1.1-3-2.8-6.8-3.8-8.5-1-1.6-3.5-4.7-5.4-6.8-2.1-2.1-5.8-4.6-8.8-5.7-3.7-1.4-7.7-2-13-1.9-4.9 0-10 0.8-13.8 2-3.3 1.1-8.4 3.9-11.4 6.2zm-638.1-34.6c4.1 0.3 10 1.2 13 2 3 0.8 8.2 2.9 11.4 4.6 3.3 1.8 8.5 5.7 11.5 8.8 3.8 3.7 7 8.3 9.8 14 2.4 4.8 4.8 11.7 5.7 16.2 1 4.7 1.6 13 1.6 34.7h-96.5l0.8 5.3c0.5 2.9 1.8 7.7 3 10.7 1.1 3 3.9 8.2 6.1 11.4 2.3 3.3 6.4 7.5 9.1 9.3 2.8 1.9 7.3 4.1 10 4.9 2.8 0.8 8.2 1.4 12 1.4 3.9 0 9.3-0.6 12-1.3 2.8-0.8 7-2.4 9.5-3.7 2.5-1.2 5.8-3.2 10.3-6.5l2.1 2.6c1.2 1.5 3.9 4.8 10.1 12.2l-3 2.4c-1.6 1.3-5 3.5-7.5 4.9-2.5 1.4-7.2 3.7-10.5 5-3.3 1.3-9.6 3.1-14 4-6.8 1.4-9.3 1.4-16.5 0.4-4.7-0.7-11.2-2.1-14.5-3.2-3.3-1.2-7.8-3.2-10-4.6-2.2-1.3-6-4.1-8.4-6.1-2.5-2-6.3-6.1-8.5-9.1-2.2-3-5.4-8.6-7.2-12.5-1.8-3.8-4-9.9-5-13.5-1.4-5.1-1.8-10.2-1.9-23.5 0-14.6 0.3-18 2.3-24.7 1.2-4.3 3.8-10.9 5.7-14.8 2-4 6.2-9.8 9.8-13.7 4.3-4.5 8.7-8 13.3-10.4 3.8-2 8.5-4.1 10.4-4.8 1.9-0.6 6.4-1.5 10-2 3.6-0.5 9.9-0.7 14-0.4zm-22.2 22.7c-2.1 0.9-5.7 3.4-8 5.5-2.4 2.1-5.7 6.7-7.5 10.2-1.8 3.5-3.9 9.3-4.7 12.9-0.9 3.6-1.6 7.3-1.6 8.3 0 1.6 2.5 1.7 37.8 1.7h37.7c-1-11.2-2.2-17-3.3-20-1.2-3.2-4.1-7.8-7-11-3.2-3.6-6.8-6.3-10.3-7.9-4.2-1.9-7.4-2.5-14.4-2.7-4.9-0.2-10.3 0.1-12 0.5-1.6 0.5-4.7 1.6-6.7 2.5zm1022.2-22.7c3 0.3 8.4 0.9 12 1.4 3.6 0.5 9.3 2.3 12.8 3.9 3.4 1.7 8.3 5.2 11 7.8 2.6 2.6 5.8 7 7.1 9.7 1.4 2.8 3.1 7.5 3.9 10.5 1.2 4.4 1.6 16 2.2 107h-28l0.1-11.5-2.3 2.2c-1.3 1.1-4.5 3.4-7.3 5.1-2.7 1.6-7.2 3.7-10 4.6-2.7 0.9-8.2 2-12 2.6q-7 0.9-14.5-0.1c-4.1-0.6-10.2-1.9-13.5-3-3.3-1.1-8.2-3.5-11-5.3-2.7-1.8-6.8-5.4-9-8.1-2.2-2.7-5.1-7.8-6.4-11.4-1.3-3.8-2.5-9.9-2.8-14.6-0.4-5.7-0.1-9.9 1.1-14.5 0.9-3.6 2.7-8.3 4-10.5 1.3-2.2 4.5-6.2 7.2-8.8 2.8-2.8 7.9-6.3 11.9-8.2 3.8-1.8 10.8-4.1 15.5-5.1 6.3-1.2 11.3-1.5 19.5-1.1 8 0.4 13 1.2 18.5 3 4.1 1.4 8.3 2.8 9.3 3.1 1.5 0.6 1.7-0.2 1.7-8.1 0-7-0.5-9.8-2.3-13.8-1.3-2.7-3.6-6-5.3-7.2-1.6-1.2-5.4-2.9-8.4-3.8-4.2-1.3-7.8-1.6-15-1.2-6.5 0.3-12 1.3-17.5 3.2-4.4 1.4-11.3 4.4-15.2 6.6-5.1 2.7-7.4 3.5-7.8 2.7-0.2-0.7-2-5.7-4-11-1.9-5.4-3.5-10.1-3.5-10.5 0-0.4 3.4-2.5 7.7-4.5 4.3-2 10.5-4.7 13.8-5.8 3.3-1.1 8-2.5 10.5-3.1 2.5-0.6 8.1-1.4 12.5-1.8 4.4-0.4 10.5-0.6 13.5-0.4zm-30.7 80.7c-1.6 0.8-4 2.7-5.5 4.3-1.5 1.5-3.2 4.1-3.7 5.6-0.6 1.5-1.1 4.6-1.1 7 0 2.3 0.9 6 1.9 8.2 1 2.2 2.9 5 4.2 6.2 1.3 1.2 4.4 3.1 6.9 4.2 2.5 1.2 7.4 2.4 11 2.7 3.6 0.4 8.9 0.2 12-0.4 3-0.7 8.2-2.5 11.5-4.1 3.3-1.6 7.9-4.6 10.3-6.5l4.2-3.6v-21c-4.7-2.3-9.7-3.9-14.2-5-5-1.2-11.5-1.9-16.3-1.9-4.4 0-10.4 0.7-13.2 1.5-2.9 0.8-6.5 2.1-8 2.8zm690.2-80.7c4.9 0.3 11.5 1.2 14.5 1.9 3 0.8 8.9 3.1 13 5.1 4.9 2.5 9.6 5.8 13.6 9.8 3.3 3.3 7.7 8.9 9.7 12.5 1.9 3.6 4.5 9.4 5.7 13 1.2 3.6 2.6 9 3.1 12 0.5 3 1 10.9 1 17.5 0 7-0.6 15.2-1.5 19.5-0.9 4.1-2.6 10-3.9 13-1.2 3-3.2 7.3-4.3 9.5-1.2 2.2-4.6 6.7-7.5 9.9-3 3.3-8.1 7.7-11.4 9.8-3.3 2.2-9.4 5-13.5 6.3-4.1 1.3-11.1 2.8-15.5 3.5-7 1-9.4 0.9-19-0.9-7.1-1.3-13.5-3.2-18-5.4-3.8-1.9-9.4-5.2-12.3-7.5-2.8-2.3-7.2-7-9.6-10.4-2.5-3.5-5.6-8.9-7-12-1.4-3.2-3.5-10.3-4.6-15.8-1.2-5.8-2-14-2-19.5 0-5.6 0.8-13.6 2.1-19.7 1.4-6.9 3.4-13.1 6.2-18.8 3.1-6.3 6-10.3 11.2-15.5 4.5-4.5 9.5-8.3 14-10.6 3.8-2 10.2-4.3 14.1-5.1 3.9-0.7 8.4-1.7 10-2 1.6-0.3 7-0.4 11.9-0.1zm-26.9 33.5c-2.6 2.4-6.1 6.6-7.7 9.3-1.5 2.8-3.5 7.7-4.3 11-0.8 3.3-1.7 9.2-2.1 13-0.3 3.9-0.1 10.4 0.5 14.5 0.6 4.1 1.8 9.5 2.7 12 0.9 2.5 2.8 6.3 4.2 8.5 1.4 2.2 3.9 5.3 5.5 6.8 1.7 1.6 4.7 3.7 6.6 4.7 1.9 1 6.4 2.3 10 3 3.6 0.6 8.9 0.9 12 0.5 3-0.4 7.7-1.7 10.5-2.9 2.7-1.2 6.6-3.6 8.5-5.2 1.9-1.7 5.1-6.4 7.2-10.5 2-4.1 4.2-10.5 4.8-14.4 0.8-4.1 1-10.9 0.7-16.5-0.3-5.5-1.4-12.2-2.6-16-1.1-3.6-3.6-8.7-5.5-11.5-1.9-2.7-5.4-6.3-7.8-7.9-2.3-1.6-6.1-3.5-8.3-4.3-2.3-0.7-7.7-1.3-12.5-1.2-4.7 0-10.5 0.7-13 1.4-2.5 0.8-6.7 3.3-9.4 5.7zm522.4-33.5c5.2 0.2 11.5 0.9 14 1.5 2.5 0.6 7.7 2.5 11.5 4.3 3.8 1.8 9.7 5.3 13 7.7 3.3 2.5 6.6 5.2 7.2 5.9 1.1 1.2-0.1 2.6-6.5 7.9-4.2 3.6-8.5 7.2-9.5 8-1.6 1.4-2.2 1.2-6-1.6-2.3-1.7-6-4-8.2-5.1-2.2-1.1-6.5-2.6-9.5-3.3-3.2-0.7-9.1-1-14-0.8-5.4 0.3-9.8 1.1-12 2.3-1.9 0.9-4.3 2.7-5.2 3.9-1 1.2-1.8 3.8-1.8 5.9 0 2 0.8 5 1.9 6.5 1 1.5 4.5 4.1 7.7 5.9 3.3 1.7 12.4 5.7 20.4 8.8 8 3.2 18.1 7.6 22.4 9.9 4.5 2.3 10.2 6.3 13 9.2 2.8 2.8 6.2 7.3 7.6 10 2.2 4.4 2.5 6.1 2.5 16.4 0 9.5-0.4 12.3-2.1 16-1.1 2.5-3.8 6.5-6 8.9-2.1 2.3-5.7 5.3-7.9 6.6-2.2 1.3-6.5 3.3-9.5 4.5-3 1.2-10 2.8-15.5 3.6-8.1 1.2-11.5 1.3-18 0.3-4.4-0.6-11.4-2.3-15.5-3.6-4.1-1.3-10.4-4.2-14-6.3-3.6-2.1-8.7-6-11.3-8.7-2.6-2.6-4.8-5-4.8-5.3 0-0.3 4.1-4.2 18.1-17l4.7 4.1c2.7 2.2 7 5.4 9.8 6.9 2.7 1.6 8.2 3.7 12 4.6 4.6 1.1 9.2 1.4 13.5 1.1 3.6-0.3 8.5-1.3 10.9-2.3 2.4-1.1 5.5-3.1 6.8-4.6 1.7-2.1 2.3-4 2.3-7.8 0-4.2-0.5-5.5-3.3-8.6-1.7-2-5.2-4.7-7.7-5.9-2.5-1.2-10.3-4.6-17.5-7.5-7.2-2.9-17.3-7.4-22.5-10.1-5.6-2.8-11.5-6.8-14.5-9.6-2.8-2.7-6.1-7.1-7.5-9.8-1.8-3.8-2.5-7.1-2.8-13.5-0.4-6.5 0-9.8 1.4-14 1.3-3.8 3.3-7 6.9-10.6 2.7-2.8 7.7-6.4 11-8.1 3.3-1.7 8-3.6 10.5-4.3 2.5-0.7 6.7-1.6 9.5-2 2.7-0.5 9.3-0.6 14.5-0.3zm-2644.5 2.8l0.5 117.5 37.5 0.5 0.5 19.5h-98l0.5-19.5 37.5-0.5v-98h-38l-0.2-9.3c-0.1-5.1 0.2-9.7 0.7-10 0.5-0.4 13.9-0.6 59-0.2zm615-56.3l0.5 53.9c0.3 29.7 0.8 54 1.1 54.2 0.3 0.1 11.8-11.6 50.4-52.3h11.7c8.8 0 11.8 0.3 11.8 1.3 0 0.7-5.4 6.6-12.1 13.2-6.6 6.6-14.2 14.5-21.8 23l25.5 49.8c13.9 27.3 25.4 49.9 25.4 50.2 0 0.3-5.3 0.5-23.5 0.6l-21.5-42.1c-11.8-23.1-21.7-42-22-42-0.3 0-6 5.9-25 26v58h-21l-0.5-184.1zm1830.8 0c0.4-0.1 0.7 23.6 0.7 105.4l49.6-49.5h15c8.2-0.1 15.3 0.2 15.7 0.5 0.4 0.2-8 9.1-38.2 39l15 29c8.3 15.9 19.8 38.1 36 69.5h-31l-19-37.3c-10.4-20.5-19.5-38.1-20.2-39.1-1.3-1.8-2.1-1.2-22.9 18.9l0.1 57.5h-28l-0.5-181.1 13.5-6.4c7.4-3.5 13.8-6.4 14.2-6.4zm-794.2 1.4c2.4 0.3 5.8 1.4 7.5 2.4 1.6 1 4 4 5.4 6.7 1.9 3.9 2.2 5.8 1.7 9.4-0.3 2.5-1.6 6.1-2.9 8-1.3 1.9-4 4.3-6.1 5.2-2 1-5.4 1.8-7.6 1.8-2.2 0-5.8-0.9-8-2-2.2-1.1-4.9-3.5-5.9-5.3-1.1-1.8-2.3-4.8-2.6-6.7-0.4-1.9-0.5-5-0.1-6.8 0.3-1.8 1.8-4.6 3.3-6.4 1.5-1.7 4.6-4 6.8-5 2.8-1.4 5.2-1.7 8.5-1.3zm-1660.5 0.9c2.2 0.3 5 1.2 6.2 2.1 1.2 0.8 2.9 2.5 3.8 3.7 0.8 1.3 1.7 4.1 2.1 6.3 0.4 2.6 0 5.3-1 7.7-0.9 2.1-3.1 4.7-4.9 5.8-2 1.2-5 2-7.7 2-2.6 0-5.8-0.8-7.5-1.8-1.7-1-3.9-3.6-4.9-5.8-1.4-2.8-1.7-5.1-1.3-7.9 0.3-2.2 1.4-5.1 2.4-6.5 1.1-1.4 3.4-3.3 5.3-4.3 2.4-1.3 4.7-1.7 7.5-1.3zm829 0.2c2.2 0.3 4.9 1.2 6 2 1.1 0.8 2.7 2.7 3.7 4.2 1.1 1.7 1.7 4.6 1.7 8.2 0 5-0.4 5.8-3.9 9.2-3.5 3.5-4.3 3.8-9.4 3.8-5 0-6.1-0.4-9.3-3.3-3.2-2.9-3.7-3.9-4.1-9.2-0.4-5.2-0.2-6.4 2-9.4 1.3-1.9 4-4 5.8-4.8 2.1-0.8 5-1.1 7.5-0.7zm162.5 50.5c1.3-0.1 6.3 0.4 11 0.9 5.6 0.7 10.6 2.1 14.7 4 3.4 1.7 8.4 5 11 7.4 2.6 2.4 6.2 7 8 10.2 1.7 3.2 4.2 9.5 5.4 13.9 2.2 7.7 2.2 9.8 2.9 104.5h-22l-0.3-48.3c-0.3-42.4-0.5-48.8-2-52.7-0.9-2.5-3.4-6.5-5.5-9-2.2-2.5-6.1-5.6-8.8-6.9-2.7-1.3-7.4-2.8-10.4-3.3-3.9-0.7-7.6-0.7-12.5 0.2-3.9 0.6-9.1 2.2-11.5 3.4-2.5 1.3-6 4-7.8 6.2-1.8 2.1-4 5.9-5 8.4-1.5 4-1.7 9.9-2.2 102h-22v-138l21.5 0.5 0.5 13.5 4.7-4.6c2.6-2.5 7.2-5.7 10.3-7.1 3-1.4 8.2-3.2 11.5-3.9 3.3-0.7 7.1-1.3 8.5-1.3zm373 0.5c4.6 0.3 11.2 1.2 14.5 2 3.3 0.9 7.4 2.2 12.5 4.4v50h-27v-30h-7c-3.9 0-9.4 0.5-12.3 1.1-2.9 0.6-7.6 2.2-10.5 3.5-2.9 1.3-7.7 4.7-10.8 7.6-3.2 3.1-6.4 7.4-7.7 10.3-2.1 4.8-2.3 6.4-2.7 66.5l38.5 0.5 0.5 24.5h-96v-25h28v-88h-28v-25l54.5 0.5 0.5 20.5 6.2-6.6c4.8-5.1 8.2-7.6 14.3-10.5 4.4-2.1 10.2-4.3 13-4.8 2.7-0.6 6.3-1.3 8-1.5 1.6-0.2 6.8-0.2 11.5 0zm465.7-0.5c2.9-0.1 8.5 0.6 12.5 1.5 4 0.9 9.7 2.8 12.8 4.2 3 1.4 7.8 5 10.7 7.9 2.9 2.9 6.6 8.1 8.2 11.5 1.7 3.5 3.8 9.4 4.7 13.3 1.3 5.8 1.6 15.2 2.4 102.5h-28l-0.1-41.3c0-22.7-0.4-44-1-47.5-0.5-3.4-2.1-8.5-3.4-11.2-1.4-2.8-4-6.1-5.8-7.4-1.8-1.4-5.3-3.4-7.7-4.5-3.4-1.5-6.7-2.1-12.5-2.1-5 0-9.9 0.6-13 1.7-3.2 1-6.7 3.3-9.6 6.2-2.9 3-5.2 6.5-6.4 10.1-1.8 5.1-2 8.9-2.5 96h-28l0.5-137.5 27.5-0.5v6c0 3.3 0.3 6.2 0.7 6.4 0.4 0.2 2.3-1.2 4.3-3.1 1.9-1.9 6.4-4.9 10-6.6 3.5-1.8 9.2-3.7 12.5-4.4 3.3-0.6 8.3-1.2 11.2-1.2zm528.8 0.6c4.9 0.3 11.3 1.1 14.2 1.9 2.9 0.8 6.8 2.1 12.3 4.4v50h-27v-30h-7.3c-4 0-9.8 0.7-13 1.5-3.2 0.8-8 2.6-10.7 4-2.8 1.4-6.7 3.9-8.7 5.7-2 1.8-4.7 4.9-5.9 6.8-1.2 1.9-2.9 6-3.8 9-1.4 4.5-1.7 10.5-1.6 62l38.5 0.5 0.5 24.5h-96v-25h29v-88h-29v-25l54.5 0.5 1 20.5 4.5-5.2c2.4-2.9 7.2-6.9 10.5-9 3.3-2.1 8.7-4.8 12-5.8 3.3-1.1 8.4-2.4 11.5-2.9 3-0.6 9.5-0.7 14.5-0.4zm-1580.5 2.3l59.5 0.5 0.5 117.5h37v20h-97v-20h38v-98h-38zm893.9 0v113h38v25h-104l0.5-24.5 37.5-0.5v-88h-38l-0.1-11.8c-0.1-6.5 0.2-12.2 0.6-12.5 0.5-0.4 15.4-0.7 65.5-0.7zm250.4 0c7 0 12.8 0.4 13 0.8 0.2 0.4 5 19.8 10.6 43.2 5.6 23.4 10.4 42.7 10.6 43 0.2 0.3 0.6-0.2 0.8-1 0.2-0.8 4.7-20.4 19.3-85.5h21.7l8.3 36.5c4.6 20.1 9 39.9 9.9 44 0.8 4.1 1.8 7.3 2 7 0.2-0.3 4.9-19.8 10.5-43.5 5.5-23.6 10.2-43.3 10.5-43.7 0.2-0.4 6-0.8 12.9-0.8 9.4 0 12.5 0.3 12.5 1.3 0 0.7-7.8 31.6-34.6 136.2l-11.2 0.3c-10.9 0.2-11.2 0.2-11.7-2-0.3-1.3-4.5-19.8-9.4-41.3-4.9-21.4-9.2-40.6-9.6-42.5-0.7-3-0.9-3.2-1.6-1.5-0.5 1.1-4.9 20.5-9.9 43-5 22.6-9.3 41.8-9.5 42.8-0.4 1.5-1.9 1.7-23 1.7l-17-67.2c-9.3-36.9-17.1-68-17.3-69-0.3-1.6 0.6-1.8 12.2-1.8z"/></svg>