<?xml version="1.0" encoding="utf-8"?>
<!-- Generator: Adobe Illustrator 23.0.6, SVG Export Plug-In . SVG Version: 6.00 Build 0)  -->
<svg version="1.1" id="katman_1" xmlns="http://www.w3.org/2000/svg" xmlns:xlink="http://www.w3.org/1999/xlink" x="0px" y="0px"
	 viewBox="0 0 3129.6 283.4" style="enable-background:new 0 0 3129.6 283.4;" xml:space="preserve">
<style type="text/css">
	.st0{fill:url(#SVGID_1_);}
	.st1{fill:#FFFFFF;}
	.st2{fill:#010202;}
</style>
<g>
	<g>
		<g>
			<g>
				
					<linearGradient id="SVGID_1_" gradientUnits="userSpaceOnUse" x1="247.439" y1="46.8788" x2="41.258" y2="245.9855" gradientTransform="matrix(1 0 0 -1 0 290.6898)">
					<stop  offset="0.1271" style="stop-color:#4F4F4F"/>
					<stop  offset="0.4907" style="stop-color:#272727"/>
					<stop  offset="0.8144" style="stop-color:#0B0B0B"/>
					<stop  offset="1" style="stop-color:#000000"/>
				</linearGradient>
				<circle class="st0" cx="141.7" cy="141.7" r="141.7"/>
			</g>
		</g>
		<g>
			<path class="st1" d="M47,141.7l56.4-56.4l13.3,13.3l-43.2,43.1l43.1,43.1l-13.3,13.3C103.4,198.1,47,141.7,47,141.7z"/>
			<path class="st1" d="M236.4,141.7L180,85.3l-13.3,13.3l43.1,43.1l-43.1,43.1l13.3,13.3C180,198.1,236.4,141.7,236.4,141.7z"/>
		</g>
	</g>
	<g>
		<path class="st2" d="M379.8,120.4v-18.5h50.1v18.5H379.8z M379.8,232.5V214h97.8v18.5H379.8z M423.7,76.8c-3.9,0-7.1-1.3-9.8-3.8
			c-2.6-2.5-4-5.6-4-9.3c0-3.8,1.3-7,4-9.6c2.6-2.6,5.9-3.8,9.8-3.8c4,0,7.4,1.3,10,3.8c2.6,2.6,3.9,5.8,3.9,9.6
			c0,3.7-1.3,6.8-3.9,9.3C431,75.5,427.7,76.8,423.7,76.8z M417.8,228.6V101.8h21.9v126.8H417.8z"/>
		<path class="st2" d="M546.8,66.4L537,47.9h64.9l-7.4,18.5H546.8z M541.6,232.5V214h98.8v18.5H541.6z M580,232.5V54.4l21.8-6.5
			v184.6H580z"/>
		<path class="st2" d="M769.2,235.5c-12.4,0-21.2-2.9-26.6-8.8c-5.3-5.9-8-13.7-8-23.5v-82.8H703v-18.5h31.6V58.2L756.5,48v53.9
			h46.2v18.5h-46.2v75.7c0,4,0.5,7.5,1.4,10.5s2.8,5.4,5.7,7.2c2.9,1.7,7.1,2.6,12.8,2.6c6.5,0,11.8-0.8,15.6-2.4
			c3.9-1.6,7.2-3.2,10-4.9l-2.6,20.6c-3.6,1.8-7.6,3.2-12.2,4.3C782.8,235,776.8,235.5,769.2,235.5z"/>
		<path class="st2" d="M925.3,235.5c-13.2,0-24.5-3.1-33.8-9.2c-9.4-6.1-16.5-14.4-21.5-24.8c-4.9-10.4-7.4-21.9-7.4-34.5
			c0-14.4,2.6-26.7,7.8-36.9c5.2-10.2,12.5-18,21.9-23.3c9.4-5.4,20.4-8.1,33-8.1c10.3,0,19.8,2.2,28.5,6.6s15.6,11.3,20.8,20.5
			c5.2,9.2,7.8,21.1,7.8,35.6c0,1.6,0,3.6-0.1,5.9c0,2.3-0.2,5-0.6,8H879.8v-18.4h80.6c-0.2-10.4-2.1-18.5-5.9-24.2
			c-3.7-5.8-8.3-9.8-13.7-12.1c-5.4-2.3-10.6-3.5-15.6-3.5c-14,0-24.3,4.2-30.8,12.6s-9.8,19.6-9.8,33.7c0,16.4,3.6,29.3,10.9,38.7
			c7.3,9.5,17.4,14.2,30.4,14.2c5.5,0,10.9-0.8,16.3-2.5s10.7-4.5,15.9-8.4l12.4,13.7c-5.7,4.7-12.5,8.6-20.3,11.6
			C942.5,234,934.2,235.5,925.3,235.5z"/>
		<path class="st2" d="M1033.5,232.5V57.8l21.9-10v184.6h-21.9V232.5z M1054.1,177.7v-24l51.8-51.9h25.6L1054.1,177.7z
			 M1123.4,232.5l-44.8-83.7l15.6-15.1l53.3,98.8L1123.4,232.5L1123.4,232.5z"/>
		<path class="st2" d="M1208.7,120.4v-18.5h50.1v18.5H1208.7z M1208.7,232.5V214h97.8v18.5H1208.7z M1252.6,76.8
			c-3.9,0-7.1-1.3-9.8-3.8c-2.6-2.5-4-5.6-4-9.3c0-3.8,1.3-7,4-9.6c2.6-2.6,5.9-3.8,9.8-3.8c4,0,7.4,1.3,10,3.8
			c2.6,2.6,3.9,5.8,3.9,9.6c0,3.7-1.3,6.8-3.9,9.3C1259.9,75.5,1256.6,76.8,1252.6,76.8z M1246.6,228.6V101.8h21.9v126.8H1246.6z"/>
		<path class="st2" d="M1364.8,232.5V101.8h21.9v24.4l-3.5-4.5c2.2-4.8,5.2-8.9,9.2-12.3c3.9-3.4,8.6-6.1,14-7.9
			c5.4-1.9,11.3-2.8,17.9-2.8c10.9,0,20.2,2,27.8,6c7.6,4,13.3,10.4,17.2,19.1c3.9,8.7,5.9,20.2,5.9,34.3v74.3h-21.8v-78.2
			c0-13.4-3.1-22.8-9.4-28.3c-6.2-5.5-13.9-8.2-23.1-8.2c-6.6,0-12.5,1.1-17.7,3.3c-5.2,2.2-9.2,5.9-12.1,11.1s-4.4,12.4-4.4,21.5
			v78.7h-21.9V232.5z"/>
		<path class="st2" d="M1592.1,235.5c-8.8,0-16-1.3-21.7-3.9s-10.5-5.8-14.5-9.7v10.5h-28V60.3l28-12.4v64.8
			c3.9-4.2,9.2-7.5,15.9-10.1c6.6-2.6,13.4-3.8,20.3-3.8c11.5,0,21.6,2.7,30.3,8.2c8.7,5.5,15.6,13.3,20.5,23.5s7.4,22.4,7.4,36.6
			c0,22.1-5.2,39-15.7,50.8C1624.2,229.6,1610,235.5,1592.1,235.5z M1587.7,210.3c11.6,0,20.2-3.9,25.8-11.7
			c5.7-7.8,8.5-18.3,8.5-31.6c0-14-2.9-24.7-8.7-32.1c-5.8-7.5-14.3-11.2-25.6-11.2c-5.3,0-10.1,0.8-14.3,2.4
			c-4.3,1.6-7.9,3.5-10.8,5.8c-3,2.3-5.2,4.5-6.7,6.6v57.3c3.3,4.6,7.7,8.2,13.2,10.8C1574.5,209,1580.8,210.3,1587.7,210.3z"/>
		<path class="st2" d="M1682.2,232.5v-23.4h28.9v-83.9h-28.9v-23.4h55.2v29l-1.6-3.8c2.1-5.5,5.6-10.4,10.7-14.7
			c5.1-4.3,11.1-7.6,18.1-10s14.5-3.6,22.5-3.6c6.9,0,13,0.7,18.2,2s9.5,2.9,12.8,4.7v47.2h-27.6v-39.4l11,11.9
			c-2.5-0.5-5-0.9-7.3-1.1c-2.4-0.2-4.6-0.3-6.5-0.3c-10.6,0-19.5,1.5-26.6,4.5c-7.2,3-12.6,7.4-16.3,13.1
			c-3.7,5.7-5.5,12.5-5.5,20.5v47.3h39.2v23.4L1682.2,232.5L1682.2,232.5z"/>
		<path class="st2" d="M1907.2,235.5c-9.6,0-18.2-1.6-25.8-4.9c-7.6-3.2-13.6-8.1-18-14.6s-6.6-14.6-6.6-24.3
			c0-10.1,2.6-18.3,7.9-24.6c5.2-6.3,12-11,20.3-14.1c8.3-3,16.9-4.5,26-4.5c6.9,0,13.2,0.6,18.8,1.8c5.7,1.2,11.2,3.1,16.6,5.8
			v-8.6c0-6.5-1.2-11.6-3.5-15.3c-2.3-3.7-5.6-6.4-9.8-7.9s-9.1-2.3-14.7-2.3c-7.5,0-15.1,1.3-22.7,3.8c-7.6,2.6-14.6,5.8-20.9,9.6
			l-8.3-21.9c6.4-3.8,14.3-7.3,23.9-10.3c9.6-3,19.8-4.5,30.6-4.5c5.7,0,11.7,0.6,17.8,1.8c6.1,1.2,11.8,3.5,17.1,6.8
			c5.2,3.3,9.5,8.2,12.6,14.5c3.2,6.3,4.8,14.7,4.8,25v85.6h-26.9v-10.9c-4.2,3.8-9.5,7-15.9,9.8
			C1924,234.1,1916.2,235.5,1907.2,235.5z M1911.9,212.3c7.9,0,14.7-1.5,20.4-4.6s10.4-6.5,14.1-10.2v-19c-3.9-2-8.7-3.7-14.1-5
			c-5.5-1.3-11.2-2-17.1-2c-8.3,0-15.7,1.6-22,4.9c-6.3,3.2-9.5,8.4-9.5,15.6c0,6.1,2.5,11,7.4,14.8
			C1896,210.4,1902.9,212.3,1911.9,212.3z"/>
		<path class="st2" d="M2033,125.2v-23.4h55.4v23.4H2033z M2033,232.5v-23.4h103.9v23.4H2033z M2080.6,80.5c-4.7,0-8.6-1.5-11.7-4.5
			c-3.1-3-4.7-6.8-4.7-11.2c0-4.5,1.6-8.3,4.7-11.2c3.1-3,7-4.5,11.7-4.5c4.8,0,8.7,1.5,11.9,4.5s4.8,6.7,4.8,11.2
			c0,4.4-1.6,8.2-4.8,11.2C2089.4,79,2085.4,80.5,2080.6,80.5z M2070.9,231.2V101.8h28v129.4H2070.9z"/>
		<path class="st2" d="M2190.2,232.5V101.8h28v28.8l-3.9-7.3c0.7-4.2,3-8.1,6.9-11.8s8.9-6.8,15-9.1c6.1-2.4,12.9-3.6,20.5-3.6
			c9.8,0,18.5,1.8,26.2,5.4s13.7,9.5,18.1,17.6c4.4,8.1,6.6,19,6.6,32.7v78h-27.9v-75.2c0-12.4-2.9-21.2-8.7-26.1
			c-5.8-5-12.9-7.5-21.1-7.5c-5.8,0-11.1,1-15.9,3c-4.8,2-8.6,5.4-11.4,10.2c-2.8,4.8-4.2,11.4-4.2,19.9v75.7L2190.2,232.5
			L2190.2,232.5z"/>
		<path class="st2" d="M2371.5,232.5l-34.9-130.6h25.8l18.7,73.8c0.5,2,1,3.9,1.3,5.9c0.4,2,0.7,4,1.1,6.1c0.4-2.5,0.8-4.6,1.1-6.5
			c0.3-1.8,0.7-3.8,1.3-5.9l17.6-73.4h21.7l17.6,73.6c0.5,2,1,4.1,1.5,6.1c0.4,2,0.9,4.2,1.2,6.6c0.4-2.3,0.7-4.4,1.1-6.4
			c0.4-2,0.9-4,1.5-6.3l18-73.6h26.1l-35.1,130.6h-22.2l-17.2-71.3c-0.5-2-1-4.6-1.7-7.7s-1.2-6-1.7-8.6c-0.5,2.7-1.2,5.6-1.9,8.7
			s-1.3,5.6-1.7,7.5l-16.7,71.5h-22.5V232.5z"/>
		<path class="st2" d="M2580.2,235.5c-13.3,0-24.8-2.7-34.6-8.2s-17.3-13.3-22.7-23.5c-5.3-10.2-8-22.3-8-36.5c0-14,2.7-26.1,8-36.4
			s12.9-18.2,22.7-23.8c9.8-5.6,21.3-8.4,34.6-8.4c13.4,0,25,2.7,34.8,8.2s17.4,13.4,22.7,23.6c5.3,10.3,7.9,22.4,7.9,36.5
			s-2.6,26.2-7.9,36.4c-5.3,10.2-12.9,18.1-22.7,23.6C2605.2,232.8,2593.6,235.5,2580.2,235.5z M2580.2,210.3
			c11.9,0,21.1-3.9,27.4-11.7c6.4-7.8,9.6-18.3,9.6-31.5s-3.1-23.8-9.4-31.6c-6.2-7.9-15.5-11.8-27.7-11.8
			c-11.9,0-21.1,3.9-27.5,11.7c-6.4,7.8-9.6,18.4-9.6,31.9c0,13.1,3.2,23.6,9.6,31.4C2559.2,206.4,2568.3,210.3,2580.2,210.3z"/>
		<path class="st2" d="M2676.9,232.5v-23.4h28.9v-83.9h-28.9v-23.4h55.2v29l-1.6-3.8c2.1-5.5,5.6-10.4,10.7-14.7
			c5.1-4.3,11.1-7.6,18.1-10s14.5-3.6,22.5-3.6c6.9,0,13,0.7,18.2,2s9.5,2.9,12.8,4.7v47.2h-27.5v-39.4l11,11.9
			c-2.5-0.5-5-0.9-7.3-1.1c-2.4-0.2-4.6-0.3-6.5-0.3c-10.6,0-19.5,1.5-26.6,4.5c-7.2,3-12.6,7.4-16.3,13.1s-5.5,12.5-5.5,20.5v47.3
			h39.2v23.4L2676.9,232.5L2676.9,232.5z"/>
		<path class="st2" d="M2854.1,232.5V60.4l28-12.5v184.6H2854.1z M2878.6,181.3v-29.5l52.2-50h33.1L2878.6,181.3z M2944.5,232.5
			l-42.4-78.4l20.3-19l52.7,97.4H2944.5z"/>
		<path class="st2" d="M3077.8,235.5c-11.3,0-21.7-2.2-31.2-6.5s-17.2-9.9-23-16.7l18.7-16c3.9,3.8,8.9,7.5,15.3,10.9
			c6.3,3.4,13.6,5.1,21.9,5.1c6.6,0,12.2-1.2,16.6-3.5c4.4-2.3,6.7-5.9,6.7-10.9c0-3.5-1.4-6.5-4.2-8.9c-2.8-2.5-6.7-4.8-11.6-6.8
			c-5-2.1-10.8-4.3-17.6-6.7c-8.4-3-15.9-6.2-22.5-9.7c-6.5-3.5-11.7-7.8-15.5-12.8c-3.8-5.1-5.7-11.4-5.7-19.1
			c0-7.3,2.3-13.6,6.8-18.9c4.5-5.2,10.7-9.3,18.4-12.1c7.8-2.8,16.4-4.2,26-4.2c11.3,0,21.1,1.9,29.5,5.8
			c8.3,3.9,15.2,8.8,20.7,14.6l-18.8,14.8c-3.6-3.1-8.1-5.9-13.5-8.4s-12-3.8-19.8-3.8c-6.5,0-11.9,1-16.1,3.1
			c-4.2,2-6.3,5.1-6.3,9.2c0,3.1,1.4,5.7,4.2,8s6.5,4.3,11.1,6.2c4.6,1.9,9.7,3.8,15.3,5.8c7.6,2.6,15,5.7,22.1,9.1
			s13,7.8,17.5,13.2c4.5,5.4,6.8,12.4,6.8,21.2c0,11.9-4.7,21.2-14.1,27.9C3106.2,232.2,3093.6,235.5,3077.8,235.5z"/>
	</g>
</g>
</svg>
