<svg version="1.2" xmlns="http://www.w3.org/2000/svg" viewBox="0 0 1531 263" width="1500" height="258">
	<title>iltekin</title>
	<path id="Path 0" fill-rule="evenodd" d="m163.4 0c28.4 0 51.6 0.3 51.6 0.8 0 0.4 3.9 1 8.7 1.4 4.9 0.4 13.5 1.6 19.3 2.7 5.8 1.1 14.3 3.2 19 4.6 4.7 1.5 11.9 4.5 16 6.6 4.1 2.1 10.6 6.2 14.5 9.1 3.8 2.9 9.1 8 11.8 11.3 2.7 3.3 7.1 10.5 9.7 16 2.7 5.5 6.1 14 7.5 19 1.4 5 3.2 13 4.1 18 0.8 5 2.1 16.2 2.8 25 1.1 13.4 1.1 18.7 0 32.5-0.8 9.1-2.1 20.8-2.9 26-0.9 5.2-2.6 13.3-4 18-1.3 4.7-3.9 12.1-5.7 16.5-1.8 4.4-5.4 10.9-7.9 14.5-2.5 3.6-7.9 9.6-12 13.3-4.7 4.4-10.5 8.4-15.9 11.2-4.7 2.3-11.6 5.4-15.5 6.8-3.9 1.4-11.3 3.4-16.5 4.5-5.2 1.1-14.7 2.8-21 3.7-9.8 1.3-19.9 1.5-67 1.2-46.5-0.2-57.2-0.6-66-2-5.8-1-14.5-2.8-19.5-4.1-5-1.3-12.6-3.8-17-5.5-4.4-1.7-10.7-4.7-14-6.7-3.3-2-8.2-5.5-10.9-7.7-2.7-2.3-6.8-6.7-9.1-9.7-2.4-3-6.1-9.1-8.3-13.5-2.1-4.4-4.9-10.9-6-14.5-1.2-3.6-2.8-9.2-3.6-12.5-0.8-3.3-2.2-11.4-3.1-18-0.9-6.6-1.8-20.1-2.2-30-0.3-10.7-0.1-23.1 0.6-30.5 0.6-6.9 1.8-16.8 2.7-22 0.9-5.2 3.1-14.2 5-20 2-5.8 5.2-13.6 7.2-17.5 2-3.9 5.7-9.5 8.2-12.5 2.4-3 5.6-6.5 7-7.8 1.4-1.2 5.6-4.3 9.5-6.9 3.9-2.6 10.6-6.2 15-8.1 4.4-1.8 12-4.4 17-5.7 5-1.3 14.1-3 20.2-3.9 6.2-0.9 13.3-1.6 15.8-1.6 2.7 0 4.3-0.4 3.9-1-0.4-0.7 16.9-1 51-1zm-89.4 78.5l53.5 53.5-53.5 53.5 25 25 78.5-78.5c-60.5-60.5-78.2-78-78.5-78-0.3 0-6 5.5-12.8 12.3zm108 99.3c-1.3 1-3 3.8-3.8 6.3-0.7 2.4-1.1 7-0.9 10.4 0.2 3.4 1.2 7.3 2.3 9.2 1.2 1.9 3.5 3.9 5.7 4.8 2.5 1 7.3 1.4 14.5 1.4 8.3 0 11.5-0.4 14.2-1.7 1.9-1 4.3-3 5.5-4.6 1.7-2.3 2-4.3 2-11 0-5.8-0.5-9.1-1.7-11.4-1-1.8-3.2-4-5-4.9-2.2-1.2-6.4-1.8-13.3-2-5.5-0.1-11.5 0.1-13.5 0.6-1.9 0.5-4.6 1.8-6 2.9zm1265-102.2c7.5 0.2 16.9 0.9 21 1.5 4.2 0.5 10.7 1.9 14.5 3 3.9 1.1 10.2 3.7 14 5.7 3.9 2 9.5 6 12.5 8.8 3.1 2.8 7.2 8 9.3 11.5 2.1 3.5 4.9 10 6.3 14.4 1.4 4.3 3.3 12.2 4.1 17.5 1.2 7.3 1.6 20.9 2.3 113h-67v-47.8c0-38.4-0.3-49.1-1.5-54.8-0.8-3.8-2.7-9-4.3-11.5-2-3.2-4.3-5.2-8.2-7.2-3.4-1.7-8.3-3.1-13-3.7-4.1-0.6-11.3-1-16-1-4.6 0-12.2 0.4-16.7 1-4.5 0.5-10.2 1.9-12.5 3.1-2.3 1.1-5.3 3-6.6 4.2-1.3 1.2-3 3.5-3.9 5.1-0.9 1.7-2.2 5.3-3.1 8-1.2 4.1-1.5 14.2-2.2 104.5h-66v-170.9h60v8c0 4.3 0.5 8.2 1 8.5 0.6 0.2 1.4-0.1 1.8-0.9 0.4-0.7 3.2-3.1 6.2-5.4 3.1-2.3 8.1-5.3 11.3-6.7 3.2-1.4 9-3.5 13-4.6 4-1.1 12.4-2.4 18.7-2.9 6.4-0.5 17.6-0.7 25-0.4zm-1045-67.3c9.7 0.2 19.1 0.9 21 1.5 2 0.6 5.1 2.1 7 3.4 2 1.3 4.7 4.3 6 6.8 2 3.5 2.6 6.3 2.9 13.5 0.3 6.2-0.1 10.7-1.2 14.5-1.1 4-2.6 6.4-5.6 9.2-2.6 2.4-6.1 4.3-9.8 5.4-4.3 1.3-9.8 1.7-21.3 1.7-8.5 0-17.9-0.5-21-1.1-3-0.7-7.4-2.6-9.7-4.2-2.7-1.9-5.1-4.8-6.5-7.8-1.9-4-2.2-6.5-2.2-15.2-0.1-9.9 0.1-10.9 2.9-15.9 1.7-2.9 4.4-6.2 6-7.2 1.7-1 5.5-2.5 8.5-3.4 4.3-1.2 9.5-1.4 23-1.2zm853 0.1c12.9 0.2 18.7 0.7 22 1.9 2.6 0.9 6.1 3.3 8.3 5.6 2.1 2.2 4.3 6 4.9 8.3 0.7 2.3 1.2 8.3 1.1 13.3-0.1 7.8-0.4 9.6-2.9 14.5-2.3 4.3-4 6-7.9 8.2-4 2.2-7.2 2.9-16.5 3.9-8.7 0.9-14.2 0.9-23 0-8.3-0.8-12.7-1.8-16-3.5-2.4-1.2-5.5-3.8-6.8-5.7-1.2-1.9-2.7-5.2-3.3-7.4-0.7-2.3-1.1-7.4-1.1-11.5 0-4.2 0.5-9.5 1.1-11.8 0.6-2.4 2.8-6.1 4.9-8.3 2.6-2.8 5.2-4.4 8.5-5.3 2.6-0.7 5.7-1.6 7-1.9 1.2-0.3 10.1-0.5 19.7-0.3zm-797 17.6h66v224.9h-66zm538 0h66.1l0.4 122.3 61-68.3h78l-6 6.3c-3.4 3.4-20.4 21.4-37.8 40-17.4 18.6-31.7 34-31.7 34.3 0 0.2 16.5 18.8 36.7 41.2 20.2 22.4 38.5 42.7 44.8 49.3l-85-0.1-60-69.3-0.5 69.3-66 0.1zm-434 14.9h66.2l0.3 38.5 101.5 0.5v43l-101.5 0.5 0.1 31.6c0 28.6 0.1 32 1.9 36.9 1.1 3.1 3.4 7 5.3 8.8 2 2.1 5.3 3.8 9 4.9 4.8 1.3 6.6 1.4 10.7 0.4 2.8-0.6 6.3-2.1 7.8-3.1 1.5-1.1 3.7-3.9 4.9-6.2 1.1-2.3 2.4-7 3.3-16.3l65-0.5-0.7 9.8c-0.4 5.4-1.4 12.5-2.3 15.7-0.9 3.3-3.1 9.3-5 13.3-2.1 4.4-5.7 9.6-9.2 13.4-3.2 3.3-8.2 7.7-11.3 9.7-3 2-8.4 4.8-12 6.2-3.5 1.5-9.8 3.4-14 4.4-4.1 0.9-13.4 2.1-20.7 2.6-8.6 0.6-18.2 0.6-27.5-0.1-7.8-0.5-18.1-1.9-22.8-3-4.6-1.1-11.8-3.7-15.9-5.7-4.1-2.1-9.9-6-12.9-8.8-3-2.7-7-7.3-8.8-10.2-1.9-2.9-4.3-7.6-5.3-10.5-1.1-2.9-2.8-8.4-3.7-12.3-1.3-5.6-1.7-14.1-2.4-81.5h-23v-43h23zm306 34.5c30.7 0.2 39.3 0.6 47 2 5.3 1 12.9 2.9 17 4.2 4.2 1.4 10.5 4.2 14 6.3 3.6 2.1 8.9 6.4 11.8 9.4 2.9 3.2 6.8 8.8 8.7 12.9 1.9 4 4.2 10 5.2 13.2 1.3 4.8 1.7 11.6 2.3 58.5h-156l0.7 3.3c0.3 1.8 1.3 4.6 2.1 6.3 0.8 1.6 2.4 4.2 3.4 5.7 1 1.5 4 3.8 6.6 5.2 2.6 1.3 7.7 2.9 11.2 3.5 4.2 0.8 14.5 1.1 28.5 0.8 17.1-0.3 23-0.8 26.5-2 2.6-1 6.2-3.4 8.3-5.7 2.1-2.2 3.7-4.7 3.7-5.6 0-1.3 4.3-1.5 65-1.5l0.1 5.3c0 2.9-0.9 8.6-1.9 12.8-1.1 4.1-3.2 9.9-4.7 12.9-1.5 3.1-5.5 8.3-8.9 11.6-4.2 4.3-8.6 7.4-14.6 10.3-4.6 2.3-12.1 5.1-16.5 6.2-4.4 1.1-12 2.5-17 3.2-5.5 0.7-23.4 1.1-47 1.1-25.7 0-40.7-0.4-46.5-1.3-4.6-0.7-11.6-2-15.5-3-3.8-1-10.6-3.5-15-5.7-5.4-2.6-9.9-5.7-14-9.9-3.8-3.7-7.5-8.7-9.9-13.5-2.1-4.1-4.9-11.5-6.1-16.5-1.3-4.9-2.8-13.9-3.5-20-0.7-6.7-1-17.2-0.7-27 0.4-10.1 1.4-19.6 2.6-26 1.2-5.5 3.2-12.9 4.7-16.5 1.4-3.5 3.6-8.4 5-10.7 1.3-2.3 5-6.8 8.2-9.8 3.7-3.6 8.8-7.2 14.2-9.9 5-2.5 12.5-5.2 18-6.4 5.3-1.3 13.1-2.6 17.5-3.1 4.4-0.5 24.9-0.8 45.5-0.6zm-36.5 52.3c-2.2 1.1-5.2 3.5-6.8 5.4-1.6 1.8-3.4 4.7-4.1 6.4-0.7 1.6-1.6 4.4-1.9 6.2l-0.7 3.3h91c0.1-3.5-0.6-6.6-1.5-9-0.8-2.5-2.8-5.8-4.3-7.4-1.4-1.6-4.2-3.6-6.2-4.6-1.9-1-5.8-2.3-8.7-2.9-3-0.7-13.7-1.1-25-1-10.9 0-21.6 0.4-23.8 0.8-2.2 0.5-5.8 1.7-8 2.8zm-464.5-47.8h66v171.1h-66zm852 0h67v171h-67z"/>
</svg>