<svg version="1.2" xmlns="http://www.w3.org/2000/svg" viewBox="0 0 1489 185" width="1000" height="124">
	<title>Screenshot 2025-01-11 at 21</title>
	<style>
		.s0 { fill: #0b0b0d } 
	</style>
	<path id="Path 0" fill-rule="evenodd" class="s0" d="m820.8 0c4.2 0 6.1 0.4 7.3 1.7 0.9 1 2.9 2.5 4.5 3.3 1.6 0.9 3.9 3.6 5.1 6 1.4 2.7 2.3 6.3 2.3 9 0 2.8-0.9 6-2.3 8.5-1.2 2.2-4 4.9-6.2 6.2-3 1.7-5.6 2.3-10.5 2.3-5 0-7.4-0.6-10.5-2.4-3-1.7-4.6-3.7-6.4-7.7-1.7-4-2.2-6.4-1.7-9.2 0.3-2 1.5-5.4 2.7-7.5 1.1-2 3.8-4.7 6-6 2.1-1.2 3.9-2.6 3.9-3.2 0-0.6 2.6-1 5.8-1zm505.9 0c3.7 0 5.9 0.5 7.2 1.7 1.1 1 3.1 2.6 4.5 3.5 1.4 1 3.5 3.3 4.6 5 1.4 2.3 2 5.1 2 9.1 0 3.6-0.7 7.1-1.9 9.4-1.1 2.2-3.5 4.7-5.7 6-2.9 1.7-5.5 2.2-10.4 2.3-4.9 0-7.5-0.6-10.5-2.3-2.6-1.4-4.8-3.8-6.3-6.7-1.8-3.5-2.2-5.6-1.9-9.5 0.3-2.8 1.2-6.5 2.1-8.3 0.9-1.7 3-4 4.7-4.9 1.8-1 3.9-2.6 4.8-3.5 1.1-1.3 3-1.8 6.8-1.8zm-1326.2 15.9l48 0.1 2.5 3.2c1.4 1.8 3.2 4.2 4 5.4 0.8 1.2 2.8 4.1 4.4 6.5 1.6 2.4 3.2 4.6 3.6 4.9 0.4 0.3 1.4 1.9 2.3 3.5 0.9 1.6 2.6 4.2 3.9 5.6 1.3 1.4 3.2 4.2 4.3 6.3 1.1 2 2.3 3.6 2.8 3.6 0.4 0 0.7 0.4 0.7 1 0 0.6 1.6 3.4 3.6 6.3 2 2.8 4.2 5.5 5 6 0.8 0.4 1.4 1.4 1.4 2.2 0 0.9 0.5 1.2 1.3 0.8 0.6-0.3 0.9-0.2 0.5 0.3-0.4 0.5-0.3 1.7 0.2 2.7 0.6 0.9 1.9 1.7 3 1.7 1.3 0 4.4-2.9 8.8-8.2 3.7-4.5 6.7-8.5 6.7-8.9 0-0.4 0.4-1.1 0.9-1.6 0.5-0.5 0.6-0.2 0.1 0.7-0.4 0.8 0.6-0.1 2.3-2 1.7-1.9 3.1-3.9 3.1-4.5 0-0.6 1.4-2.1 3-3.5 1.7-1.4 2.8-2.8 2.6-3.3-0.3-0.4-0.1-0.6 0.3-0.5 0.4 0.2 2.2-1.4 4-3.5 1.8-2 3.2-3.9 3.2-4.2 0-0.3 0.2-0.4 0.4-0.3 0.2 0.2 2.1-2 4.3-4.7 2.2-2.8 4.7-5.6 5.6-6.3 1-0.6 1.4-1.8 1-2.5-0.3-0.6-0.3-0.9 0-0.5 0.4 0.5 2.1-0.8 3.7-2.7 2.8-3.3 3.4-3.5 9-3.5 3.3 0 6 0.3 6 0.8-0.1 0.4-2.5 3.4-5.5 6.7-3 3.3-5.1 6.4-4.7 6.8 0.4 0.5 0.2 0.7-0.3 0.5-0.6-0.1-3.7 2.7-6.8 6.5-3.1 3.7-5.4 7-4.9 7.3 0.4 0.3 0.2 0.4-0.4 0.2-0.6-0.2-3.6 2.6-6.7 6.2-3.1 3.6-5.4 6.8-5.2 7.3 0.3 0.4-0.7 1.5-2.2 2.6-1.6 1-4.8 4.2-7.3 7.2-2.5 2.9-4 5-3.5 4.7 0.6-0.3-1.8 2.4-5.2 6.1-3.5 3.6-5.9 7-5.6 7.6 0.4 0.6 0.8 1.4 0.9 2 0 0.6 0.8 2.2 1.7 3.8 1 1.5 2 2.5 2.5 2.3 0.4-0.3 1.3 0.4 2 1.5 0.6 1 0.8 1.7 0.2 1.4-0.5-0.3-0.2 0.8 0.8 2.3 0.9 1.5 3.9 5.9 6.7 9.7 2.7 3.9 5.3 7.2 5.8 7.5 0.5 0.3 0.7 0.7 0.6 1-0.2 0.3 2.3 4.4 5.6 9.2 3.3 4.8 6.2 8.6 6.5 8.3 0.3-0.2 1.1 0.6 1.9 1.8 1.2 1.9 1.2 2.1 0 1.2-0.8-0.6-0.6-0.2 0.6 0.9 1.1 1 1.9 2 1.8 2.2-0.2 0.2 1.2 2.6 3 5.4 1.7 2.7 3.8 5 4.5 5 0.6 0 1.2 0.3 1.3 0.8 0 0.4 0.2 1.4 0.4 2.2 0.1 0.8 3.6 6.3 7.6 12.3 4.1 5.9 8.4 12.3 11.9 17.7h-24.5c-19.3 0-24.5-0.3-24.5-1.3 0-0.7-2.2-4.4-4.8-8.2-2.7-3.9-7.7-11.2-11.3-16.2-3.6-5.3-6.8-8.9-7.4-8.5-0.6 0.4-0.7 0.2-0.2-0.6 0.4-0.7-1.9-5-5.9-11-3.6-5.3-7-9.8-7.5-10-0.5-0.1-0.9-0.8-0.9-1.5 0-0.6-1.5-3-3.3-5.1-2.5-3-3.6-3.7-4.9-3-0.9 0.5-4.6 4.4-8.2 8.6-3.6 4.3-6.6 7.9-6.6 8 0.1 0.2-1.9 2.3-4.2 4.8-2.4 2.5-6.6 7.2-9.3 10.4-2.8 3.3-5 6.2-5 6.5 0 0.3-2.6 3.2-5.8 6.3-3.1 3.2-5.5 6.2-5.2 6.8 0.3 0.6-0.3 1.6-1.2 2.3-1.7 1.1-1.7 1-0.4-0.8 0.8-1.1-0.4 0-2.7 2.5-2.3 2.5-4.1 5.1-4.2 5.8 0 0.6-0.6 1.5-1.2 2-1 0.5-1 0.3-0.3-0.8 0.7-1.1 0.7-1.3-0.3-0.7-0.6 0.4-1.2 1.4-1.2 2.2 0 1.2-1.4 1.5-6.5 1.5-3.7 0-6.5-0.4-6.5-1 0-0.6 0.5-1.2 1-1.5 0.6-0.3 0.8-0.9 0.5-1.5-0.3-0.6 0.1-1.3 0.7-1.8 0.9-0.5 1-0.3 0.5 0.8-0.5 0.8 0 0.5 1-0.6 1-1.2 4.1-4.8 6.8-8 2.8-3.3 5.8-6.5 6.8-7.2 0.9-0.6 1.5-1.9 1.2-2.7-0.3-0.8 0.4-2.3 1.5-3.2 1.2-1 2.1-1.5 2-1 0 0.4 1.7-1.2 3.8-3.5 2.1-2.4 5.4-6.3 7.3-8.8 1.9-2.5 3.9-5.4 4.5-6.5 0.6-1.1 1.6-2 2.1-2 0.6 0 3.4-2.9 6.4-6.5 2.9-3.6 5.8-6.8 6.4-7.2 0.5-0.4 0.7-0.8 0.3-0.8-0.5 0 0.6-1.1 2.2-2.5 1.7-1.4 3-2.9 3-3.5 0-0.6 1.1-1.9 2.5-3 1.4-1.1 2.5-2.8 2.5-3.7 0-1-1-3.4-2.2-5.3-1.2-1.9-3.3-4.7-4.7-6.3-1.4-1.5-2.3-2.7-1.8-2.7 0.4 0-0.9-2.1-2.9-4.7-2-2.7-4.7-6.7-6-9-1.6-2.9-2.8-4-3.6-3.5q-1.3 0.7-0.5-0.5c0.4-0.8-1.1-3.7-3.8-7.3-2.5-3.3-4.7-5.7-5-5.2-0.3 0.4-0.5-0.1-0.5-1 0-1-0.3-1.8-0.7-1.8-0.5 0-0.8-0.6-0.9-1.2 0-0.7-3.6-6.5-7.9-12.8-4.3-6.3-9-12.7-10.4-14.3-1.4-1.5-2.3-2.7-1.8-2.7 0.4 0 0.1-0.7-0.5-1.6-0.7-0.9-2.6-3-4.1-4.8-1.5-1.7-2.5-3.3-2.2-3.6 0.3-0.3-0.5-1.5-1.7-2.8zm20.6 13.3c0.6 1.3 2.1 3 3.2 4 1.2 0.9 2.2 2.3 2.3 3 0 0.7 2.5 4.6 5.5 8.6 2.9 4 5.7 7.2 6.1 7.2 0.4 0 0.5 0.4 0.3 1-0.3 0.5 1.7 4 4.4 7.7 2.7 3.7 5.6 7.6 6.5 8.5 0.9 1 1.3 1.8 1.1 1.8-0.3 0 0.9 2 2.7 4.5 1.8 2.5 3.6 4.5 4 4.5 0.4 0 1 0.8 1.2 1.7 0.3 1 4.6 7.6 9.6 14.8 5 7.1 10.1 14.4 11.3 16.2 1.2 1.8 2.7 3.3 3.4 3.3 0.7 0 1.3 0.3 1.3 0.7 0.1 0.4 0.3 1.7 0.5 2.8 0.2 1.1 1.3 2.9 2.3 4 1.1 1.1 4 5.2 6.6 9.2 2.5 4 5 7.3 5.6 7.3 0.5 0 0.7 0.4 0.5 1-0.3 0.5-0.2 1.1 0.2 1.3 0.4 0.2 3.3 4.2 6.3 8.8 3.1 4.6 6.3 9.1 7.1 9.9 0.8 0.8 3 3.9 4.9 6.9 1.9 2.9 4.4 6 5.5 6.7 1.3 0.9 4.9 1.4 10.5 1.4 4.6 0 9.1-0.4 9.8-0.8 0.9-0.5 1.1-1.5 0.6-3.2-0.4-1.4-1.4-3.5-2.3-4.7-0.9-1.3-2-1.9-2.5-1.5-0.4 0.4-0.5 0-0.2-0.8 0.4-0.9-0.9-3.5-3.4-6.5-2.2-2.8-4-5.2-4-5.5 0-0.3-1.3-2.3-3-4.5-1.7-2.2-3.4-4.5-3.8-5-0.4-0.6-3.9-5.7-7.7-11.3-3.9-5.7-7.6-10.3-8.3-10.3-0.7 0.1-1-0.5-0.7-1.2 0.3-0.7-0.1-1.9-1-2.7-0.9-0.8-1.6-1.9-1.6-2.3 0-0.4-1.7-3.1-3.9-6-2.1-2.9-4.6-6-5.5-7-0.8-0.9-1.3-1.7-1-1.7 0.2 0-1.1-2.2-3-4.8-1.9-2.6-5.8-8.1-8.7-12.2-2.8-4.1-5.5-7.7-5.8-8-0.4-0.3-1.7-2.3-3.1-4.5-1.3-2.2-4.3-6.7-6.8-10-2.4-3.3-5.1-6.5-6-7.1-0.9-0.6-2-2.4-2.5-4-0.5-1.6-1.9-4.2-3.2-5.7-1.4-1.5-2.7-2.4-3-2-0.3 0.4-0.5 0-0.5-1 0-0.9-1.5-4.1-3.3-7-1.9-2.9-4.4-6.3-5.6-7.7-2-2.3-3-2.6-11.9-2.9-8-0.2-10 0-10.9 1.3-0.9 1.2-1 2.1-0.1 3.8zm849.9-26.2h32v171h-32zm301 0h32l-0.1 49.2c0 44.5 0.1 49.4 1.6 50.8 1.5 1.3 2.1 1 6.3-3.5 2.6-2.8 12-13.5 37.2-42.5h19c10.4 0 19 0.2 19 0.5 0 0.3-9.3 10.3-20.5 22.2-11.3 12-20.5 22.6-20.5 23.5 0 1 6 11.3 13.3 23 7.3 11.7 16 25.6 19.3 30.8 3.3 5.2 7 11.2 10.4 17l-36.5-0.1-14.2-23.7c-7.8-13.1-14.9-24.2-15.8-24.7-1.3-0.8-3.3 0.6-18.5 16v32.5h-32zm-190.8 17.1c0.4-0.1 0.8 7.5 0.8 16.9 0 13.8 0.2 17.3 1.5 18.5 1.1 1.2 4.3 1.5 28.5 1.5v21h-13.5c-10.5 0-13.7 0.3-15 1.5-1.3 1.3-1.5 5.1-1.6 27.2 0 19.4 0.4 27 1.5 30.8q1.4 5 5 8.2c2.1 1.9 5.1 3.5 7.3 3.9 2.1 0.4 6.6 0.5 16.3-0.1v25.5l-3.8 0.4c-2.1 0.3-7.1 0.8-11.2 1.1-4.2 0.4-11.1 0.2-15.5-0.4-5.4-0.8-10.2-2.2-14.5-4.4-5-2.5-7.2-4.4-9.8-8.2-1.9-2.8-4-7.3-4.8-10-1.1-3.9-1.5-12.2-1.5-38.3 0.1-31.9 0-33.3-1.9-35.2-1.7-1.7-3.4-2-20-2v-21h9c7.6 0 9.3-0.3 11-2 1.8-1.8 1.9-3.2 1.7-27.7l13.9-3.2c7.6-1.8 14.3-3.4 14.9-3.6 0.5-0.2 1.3-0.4 1.7-0.4zm-734 34c4.8-0.1 12 0.4 16 1 4 0.6 10.6 2.4 14.8 4 4.1 1.6 9.6 4.5 12.2 6.4 2.6 1.9 5.9 5.3 7.3 7.5 1.3 2.2 2.3 4.3 2.1 4.7-0.2 0.4-4.3 3.6-17.6 13.3l-5-4.5c-2.8-2.5-7.2-5.5-9.8-6.6-2.6-1.1-7.7-2.8-11.2-3.6-3.7-0.9-8.9-1.3-12-1.1-3.1 0.3-7.7 1.5-10.3 2.6-3.6 1.7-5.1 3-6.3 5.9-1 2.2-1.4 5-1.1 6.8 0.4 1.6 1.6 4 2.9 5.2 1.2 1.2 4.1 2.8 6.3 3.6 2.2 0.8 8.9 2.2 15 3.1 6 1 14.3 2.4 18.5 3.1 4.1 0.8 10.3 2.9 13.9 4.7 3.7 1.9 7.7 5 9.6 7.3 1.8 2.2 4.1 6 5.1 8.5 1.4 3.3 1.9 7 1.8 14 0 8.1-0.4 10.3-2.6 15-1.4 3-4.3 7.2-6.5 9.3-2.1 2.1-6.5 5.2-9.8 6.8-3.3 1.6-9 3.6-12.5 4.4-3.6 0.8-12.1 1.4-18.8 1.4-7.3 0.1-15.4-0.6-20-1.5-4.3-0.9-10.9-3.1-14.7-4.9-3.9-1.8-9.3-5.3-12-7.7-2.7-2.4-6.2-6.3-7.7-8.8-1.6-2.5-2.9-4.7-2.9-5 0-0.3 4.2-3.1 9.3-6.3 5.1-3.1 9.6-5.7 10-5.7 0.4 0 3.3 2.7 6.5 6 3.4 3.5 7.6 6.8 10.3 7.9 2.4 1.1 7.4 2.7 11 3.6 4.1 1.1 8.8 1.6 13 1.3 4.1-0.3 8.3-1.4 11.5-2.9 3.7-1.8 5.4-3.4 6.9-6.4 1.7-3.7 1.8-4.4 0.5-8-1.1-3.2-2.4-4.5-5.9-6.3-2.5-1.2-6.8-2.6-9.5-3.1-2.8-0.6-10.9-1.9-18-3.1-9.7-1.5-14.8-2.9-20-5.4-3.9-1.8-8.6-4.6-10.5-6.2-1.8-1.6-4.7-5.6-6.2-8.9-2.5-5.2-2.8-7.2-2.8-15 0-6.9 0.5-10.1 2.1-13.5 1.1-2.5 3.5-6.3 5.3-8.5 2-2.5 6.1-5.5 10.6-7.8 4.5-2.3 10.4-4.4 15-5.2 4.1-0.7 11.4-1.4 16.2-1.4zm134.8 0.3c7.8 0.3 14.5 1.1 18 2.1 3 0.9 8.1 3.1 11.3 4.8 3.3 1.8 7.8 5.2 10.1 7.7 2.3 2.5 5.6 7.2 7.3 10.5 1.7 3.3 3.8 8.7 4.6 12 1.1 3.9 1.6 10.3 1.7 31.5h-41c-35 0-41.1 0.2-42.5 1.5-1.3 1.2-1.4 2.2-0.5 5.7 0.6 2.4 1.9 6.1 2.9 8.3 0.9 2.2 3.7 5.8 6.2 8 2.6 2.5 6.6 4.9 9.9 6 3 1 8.2 1.8 11.5 1.9 3.3 0 8.4-0.8 11.5-1.8 3-1 6.9-2.9 8.7-4.2 1.8-1.4 4.5-4.2 6-6.5 1.5-2.2 3.2-4 3.8-4 0.5 0 5.7 2.1 11.5 4.7 5.7 2.6 10.6 4.8 10.7 5 0.1 0.2-0.7 2.3-1.9 4.6-1.2 2.4-4.7 6.8-7.7 9.9-3.4 3.3-8.3 6.8-12.1 8.6-3.6 1.8-9.5 3.9-13 4.7-4 0.9-11.2 1.5-18.5 1.5-6.6 0-15-0.6-18.5-1.3-3.6-0.7-10.3-3.3-15-5.7-5.7-3-9.8-6-12.8-9.4-2.5-2.8-6.1-8.2-8-12-1.9-3.9-4.1-9.9-4.8-13.5-0.8-3.6-1.4-11.9-1.4-18.5 0-6.6 0.6-14.9 1.4-18.5 0.7-3.6 3.2-10.2 5.4-14.8 2.3-4.5 5.8-10.1 7.9-12.4 2.1-2.2 5.8-5.5 8.3-7.2 2.4-1.6 7-4 10.2-5.3 3.2-1.3 8.1-2.8 11-3.3 2.9-0.5 10.9-0.8 17.8-0.6zm-23.3 26.3c-2.1 2.1-4.5 5.6-5.3 7.8-0.8 2.2-1.8 6.1-2.2 8.7-0.4 2.9-0.3 5.2 0.3 5.8 0.6 0.6 10.2 1 25.1 1 20.1 0 24.5-0.3 25.8-1.5 0.9-0.8 1.6-2.8 1.5-4.3 0-1.5-0.7-5.2-1.7-8.2-1.1-3.5-3.2-6.8-5.8-9.5-2.3-2.3-6.1-4.8-9-5.8-2.7-1-7.2-1.7-9.9-1.7-2.8 0-7.3 1-10 2-2.8 1.1-6.7 3.7-8.8 5.7zm270.3-26.3c6.8 0.3 14.7 1.1 17.5 1.9 2.7 0.7 7.7 2.7 11 4.4 3.3 1.6 8.1 5.2 10.8 7.9 2.9 2.9 6.2 7.7 8.2 11.9 1.8 3.8 3.7 9.2 4.3 12 0.6 2.7 1.4 10.7 2.7 30.5h-41.3c-22.7 0-41.9 0.2-42.7 0.5-0.9 0.3-1.5 1.7-1.6 3.2 0 1.5 0.8 5.3 1.7 8.3 1.2 4.1 2.9 6.8 6.7 10.6 4 3.9 6.5 5.5 11.2 6.9 3.3 1 8.4 1.9 11.5 1.9 3 0 8-0.8 11.2-1.7 3.7-1.1 7.3-3.1 9.9-5.5 2.2-2 4.9-5.2 7.9-10.2l11.2 5.1c6.2 2.8 11.4 5.3 11.5 5.5 0.1 0.2-0.8 2.5-2.1 5.1-1.3 2.6-5 7.3-8.3 10.3-4 3.8-8.2 6.5-13.3 8.7-4.2 1.7-10 3.7-13 4.2-3.1 0.6-10.7 1.1-17 1.1-6.5 0-14.6-0.7-18.5-1.6-3.9-0.8-10.2-3.2-14-5.2-3.9-2-9.3-6-12-8.9-2.8-2.9-6.7-8.3-8.7-12-2.1-3.8-4.4-10.1-5.3-14.1-0.9-4-1.5-12.1-1.5-18.2 0-6.1 0.7-14.5 1.5-18.8 0.9-4.4 3.3-11 5.5-15.2 2.1-4.1 6.2-10 9.2-13.1 3.5-3.7 7.8-6.9 12.8-9.4 4.1-2.1 10.4-4.4 14-5.1 4.2-0.9 10.8-1.2 19-1zm-21.4 24.8c-2.2 1.8-4.8 5-5.8 7-1 2.1-2.5 6.5-3.3 9.8-1.2 4.8-1.3 6.2-0.3 7 0.8 0.6 11.2 0.8 26.7 0.7 21.2-0.2 25.5-0.5 26.4-1.7 0.7-1.1 0.4-3.6-0.9-8.5-1.1-4.1-3.1-8.7-4.9-11-1.7-2.1-5.3-5.1-8-6.5-3.6-1.8-6.8-2.6-11.5-2.7-3.8-0.2-8.2 0.3-10.5 1.2-2.2 0.8-5.8 2.9-7.9 4.7zm175.4-25.2v29.5l-8.3 0.6c-5.1 0.4-10 1.4-13 2.7-2.6 1.2-6.9 4.3-9.6 6.9-3.1 3.2-5.4 6.5-6.5 9.8-0.9 2.7-2.1 9-2.6 14-0.6 4.9-1 19.7-1 56.5h-32v-117h30l0.2 10.2c0.2 9.4 0.4 10.3 2.3 10.5 1.5 0.2 2.8-1.2 5.5-5.9 1.9-3.3 5.3-7.6 7.5-9.4 2.2-1.8 5.8-4.1 8-5 2.2-1 5.3-2.1 7-2.5 1.6-0.4 5.1-0.8 12.5-0.9zm304.7 0.1c5.1-0.1 12.7 0.6 17 1.4 4.9 1 10.6 3.1 15.7 5.8 4.6 2.4 9.3 5.8 11.3 8.2 1.9 2.2 4.7 6.2 6.3 9 1.5 2.7 3.6 7.7 4.5 11 0.8 3.3 1.9 12.2 3 33.5h-41.3c-22.7 0-41.9 0.2-42.7 0.5-0.9 0.3-1.5 1.7-1.5 3.5 0 1.6 0.9 5.6 2.1 8.7 1.4 3.7 3.9 7.4 6.8 10.3 3.5 3.4 6.1 5 11.1 6.5 3.7 1.1 9 1.9 12.5 1.9 3.3-0.1 8.4-1.1 11.5-2.2 3.7-1.5 6.9-3.6 10-7 2.4-2.6 4.9-5.5 5.5-6.4 0.8-1.4 2.4-1 12.2 3.5 6.2 2.9 11.3 5.7 11.3 6.4 0 0.7-2 4.1-4.4 7.5-2.5 3.7-6.5 7.8-9.7 10.1-3 2-9 5.2-13.4 6.9-7.3 2.8-9.4 3.1-22 3.6-11 0.3-15.8 0.1-22-1.3-4.4-0.9-11-3.2-14.5-5.1-3.6-1.9-8.5-5.3-10.9-7.6-2.4-2.4-5.9-6.6-7.8-9.3-1.8-2.8-4.3-7.7-5.4-11-1.2-3.4-2.5-10.4-3-16-0.4-5.5-0.4-14.5 0.1-20 0.5-5.5 1.4-11.8 2-14 0.7-2.2 2.3-6.3 3.7-9 1.4-2.8 4.3-7.3 6.4-10 2.2-2.8 5.6-6.3 7.7-7.9 2-1.5 6.4-4.2 9.7-5.8 3.3-1.7 8.9-3.6 12.5-4.4 3.5-0.7 10.6-1.3 15.7-1.3zm-18.6 26.2c-2.4 2.3-4.9 5.4-5.7 6.9-0.8 1.5-2.1 5.4-2.9 8.5-1 4.4-1.1 6.1-0.2 7 0.9 1 7.3 1.3 26.2 1.3 21.3 0.1 25.1-0.2 26.2-1.5 0.8-1 1-3 0.7-5.8-0.4-2.3-1.6-6.4-2.8-9.1-1.2-2.7-4-6.6-6.2-8.5-2.3-2-6.1-4.2-8.8-4.9-2.5-0.7-6.8-1.2-9.4-1.2-2.6 0.1-6.5 0.8-8.7 1.6-2.2 0.8-6 3.3-8.4 5.7zm382.4-26c8.1 0.3 11 0.8 15.5 2.8 3 1.4 7 3.9 9 5.6 1.9 1.6 4.7 5.2 6.1 7.9 1.5 2.7 3.5 7.6 4.4 10.9 1.5 5.1 1.8 12.1 2.5 92.5h-32v-37c0-34.3-0.2-37.5-2-43.3-1.4-4.2-3.3-7.4-5.8-10-2.6-2.6-5.2-4.1-8.7-4.9-3.9-0.9-6.4-0.9-11 0.1-5.2 1.1-6.7 2-11 6.4-3.7 3.8-5.6 6.8-7 11.2-1.8 5.4-2 9.3-2.5 77.5h-32v-117h31l0.2 8.2c0.2 7.4 0.5 8.3 2.3 8.6 1.4 0.2 2.7-0.9 4.5-3.8 1.3-2.3 3.8-5.2 5.5-6.4 1.6-1.3 5.4-3.6 8.5-5.2 3-1.5 7-3.1 9-3.5 1.9-0.5 8-0.7 13.5-0.6zm-996.5 2.7h96v19l-5.8 7.3c-3.2 4-12.3 15.5-20.2 25.6-8 10.1-18.3 22.9-22.8 28.5-4.5 5.5-8.3 10.5-8.3 11.1 0 0.5 0.6 1.5 1.3 2.2 1 1 8.1 1.3 58.8 1.3v22h-102v-19l8.3-10.3c4.5-5.6 14.1-17.4 21.2-26.2 7.1-8.8 16.4-20.3 20.7-25.5 4.3-5.2 7.8-10.3 7.8-11.3 0-0.9-0.7-1.9-1.5-2.2-0.9-0.3-13.2-0.5-53.5-0.5zm350 0h32v117h-32zm506 0h32v117h-32z"/>
</svg>